<svg viewBox="0 0 640 640" xmlns="http://www.w3.org/2000/svg"><path d="m160 56c0-13.3 10.7-24 24-24h272c13.3 0 24 10.7 24 24s-10.7 24-24 24h-272c-13.3 0-24-10.7-24-24zm-48 96c0-13.3 10.7-24 24-24h368c13.3 0 24 10.7 24 24s-10.7 24-24 24h-368c-13.3 0-24-10.7-24-24zm-48 136c0-35.3 28.7-64 64-64h384c35.3 0 64 28.7 64 64v192c0 35.3-28.7 64-64 64h-384c-35.3 0-64-28.7-64-64zm96 64c17.7 0 32-14.3 32-32s-14.3-32-32-32-32 14.3-32 32 14.3 32 32 32zm224-32c-7.4 0-14.3 3.4-18.9 9.2l-42.6 54.3-14.8-21.2c-4.5-6.4-11.8-10.2-19.7-10.2s-15.2 3.8-19.7 10.2l-56 80c-5.1 7.3-5.8 16.9-1.6 24.8s12.4 12.9 21.3 12.9h240c9.2 0 17.6-5.2 21.6-13.5s3-18.1-2.7-25.3l-88-112c-4.6-5.8-11.5-9.2-18.9-9.2z"/></svg>