<svg viewBox="0 0 640 512" xmlns="http://www.w3.org/2000/svg"><path d="m512 32c35.3 0 64 28.7 64 64v82.137c-6.897-1.706-13.987-2.224-21.059-2.537-3.274.088-6.554.031-9.821.263-5.777.377-11.502 1.296-17.12 2.681v-82.544c0-8.8-7.2-16-16-16h-448c-8.8 0-16 7.2-16 16v320c0 8.8 7.2 16 16 16h201.755c1.017 14.211 4.834 28.017 10.789 40.937 1.115 2.42 2.496 4.709 3.745 7.063h-216.289c-35.3 0-64-28.7-64-64v-320c0-35.3 28.7-64 64-64z"/><path d="m128 320c17.673 0 32 14.327 32 32s-14.327 32-32 32-32-14.327-32-32 14.327-32 32-32z"/><path d="m307.425 328-17.701 22.817c-5.722 7.818-11.405 16.052-14.861 25.183h-50.863c-13.3 0-24-10.7-24-24s10.7-24 24-24z"/><path d="m128 224c17.673 0 32 14.327 32 32s-14.327 32-32 32-32-14.327-32-32 14.327-32 32-32z"/><path d="m423.391 232c-29.635 3.772-55.998 19.631-74.636 42.725l-4.092 5.275h-120.663c-13.3 0-24-10.7-24-24s10.7-24 24-24z"/><path d="m128 128c17.673 0 32 14.327 32 32s-14.327 32-32 32-32-14.327-32-32 14.327-32 32-32z"/><path d="m448 136c13.3 0 24 10.7 24 24s-10.7 24-24 24h-224c-13.3 0-24-10.7-24-24s10.7-24 24-24z"/><path d="m621.244 347.217c29.699-38.284 23.454-94.215-13.957-125.005-33.107-27.248-80.35-25.996-111.694 2.94l-.875.778c-7.849 7.251-8.444 19.695-1.351 27.754 7.093 8.058 19.203 8.81 26.993 1.566l.875-.779c17.501-16.127 43.819-16.837 62.233-1.626 20.858 17.166 24.339 48.341 7.781 69.685l-58.965 76.146c-16.558 21.344-46.846 24.726-67.704 7.56-18.474-15.205-23.608-41.801-12.192-62.88l.544-1.051c5.135-9.485 1.751-21.485-7.438-26.772s-20.901-1.937-25.983 7.481l-.544 1.051c-20.551 37.819-11.313 85.556 21.794 112.804 37.412 30.79 91.753 24.723 121.452-13.56zm-310.186 20.15c-29.7 38.283-23.455 94.214 13.956 125.005 33.108 27.248 80.35 25.996 111.694-2.94l.876-.779c7.849-7.251 8.444-19.695 1.351-27.753s-19.203-8.81-26.993-1.566l-.875.778c-17.502 16.127-43.819 16.837-62.234 1.626-20.864-17.227-24.345-48.402-7.787-69.746l58.971-76.085c16.558-21.344 46.847-24.725 67.704-7.559 18.474 15.204 23.608 41.8 12.199 62.941l-.544 1.051c-5.135 9.485-1.75 21.485 7.439 26.771 9.188 5.287 20.901 1.937 25.982-7.48l.544-1.051c20.545-37.88 11.306-85.617-21.801-112.865-37.411-30.791-91.753-24.723-121.452 13.56z"/></svg>