<svg viewBox="0 0 512 512" xmlns="http://www.w3.org/2000/svg"><path d="m327.5 85.2c-4.5 1.7-7.5 6-7.5 10.8s3 9.1 7.5 10.8l56.5 21.2 21.2 56.5c1.7 4.5 6 7.5 10.8 7.5s9.1-3 10.8-7.5l21.2-56.5 56.5-21.2c4.5-1.7 7.5-6 7.5-10.8s-3-9.1-7.5-10.8l-56.5-21.2-21.2-56.5c-1.7-4.5-6-7.5-10.8-7.5s-9.1 3-10.8 7.5l-21.2 56.5zm-122.4-11.9c-2.6-5.7-8.3-9.3-14.5-9.3s-11.9 3.6-14.5 9.3l-52.8 114-114 52.7c-5.7 2.6-9.3 8.3-9.3 14.6s3.6 11.9 9.3 14.5l114.1 52.7 52.6 114c2.6 5.7 8.3 9.3 14.5 9.3s11.9-3.6 14.5-9.3l52.7-114.1 114.1-52.7c5.7-2.6 9.3-8.3 9.3-14.5s-3.6-11.9-9.3-14.5l-114-52.6zm178.9 310.7-56.5 21.2c-4.5 1.7-7.5 6-7.5 10.8s3 9.1 7.5 10.8l56.5 21.2 21.2 56.5c1.7 4.5 6 7.5 10.8 7.5s9.1-3 10.8-7.5l21.2-56.5 56.5-21.2c4.5-1.7 7.5-6 7.5-10.8s-3-9.1-7.5-10.8l-56.5-21.2-21.2-56.5c-1.7-4.5-6-7.5-10.8-7.5s-9.1 3-10.8 7.5z"/></svg>